<svg version="1.2" xmlns="http://www.w3.org/2000/svg" viewBox="0 0 28 28" width="28" height="28">
	<title>logo-fill</title>
	<defs>
		<clipPath clipPathUnits="userSpaceOnUse" id="cp1">
			<path d="m0 0h28v28h-28z"/>
		</clipPath>
	</defs>
	<style>
		.s0 { fill: #ffffff } 
		.s1 { fill: #000000 } 
	</style>
	<g id="Clip-Path" clip-path="url(#cp1)">
		<g>
			<path fill-rule="evenodd" class="s0" d="m0 0h28v28h-28z"/>
			<g>
				<path class="s1" d="m14.1 14.9c1.6 0 3.1-0.1 4.3-0.2 1-0.2 1.3-0.9 0.9-1.9l-1.8-5.8c-0.3-1.1-1.2-1.5-2.4-1.5h-2c-1.2 0-2 0.4-2.4 1.5l-1.8 5.8c-0.3 1 0 1.7 1 1.9 1.2 0.1 2.7 0.2 4.2 0.2zm-0.6-0.4v7.6h1.3v-7.6zm-2.5 8.1h6.2c0.3 0 0.5-0.2 0.5-0.5 0-0.6-0.5-1-1.2-1h-4.9c-0.7 0-1.1 0.4-1.1 1 0 0.3 0.2 0.5 0.5 0.5z"/>
			</g>
		</g>
	</g>
</svg>